<svg width="226" height="284" viewBox="0 0 226 284" fill="none"
    xmlns="http://www.w3.org/2000/svg">
    <path d="M13.0227 0.366455H89L13.0227 180.366V0.366455Z" fill="white" />
    <path d="M213.977 0.366455H138L213.977 180.366V0.366455Z" fill="white" />
    <path d="M113.28 139.5L129.5 180H160.977L113.28 67L82 139.5H113.28Z" fill="white" />
    <path d="M33.0999 209.244C34.5719 213.844 36.0132 218.505 37.4239 223.228C38.8959 227.889 40.3066 232.796 41.6559 237.948C43.0666 243.1 44.4466 248.559 45.7959 254.324C47.2066 260.089 48.6172 266.315 50.0279 273H41.7479C41.2572 270.24 40.7359 267.511 40.1839 264.812C39.6932 262.113 39.1719 259.415 38.6199 256.716H18.5639C17.9506 259.415 17.3986 262.113 16.9079 264.812C16.4172 267.511 15.9266 270.24 15.4359 273H7.43188C8.78122 266.315 10.1612 260.089 11.5719 254.324C12.9826 248.559 14.3626 243.1 15.7119 237.948C17.1226 232.796 18.5332 227.889 19.9439 223.228C21.4159 218.505 22.8879 213.844 24.3599 209.244H33.0999ZM28.5919 218.628C27.0586 223.719 25.5866 228.84 24.1759 233.992C22.7652 239.144 21.4159 244.419 20.1279 249.816H36.9639C35.7372 244.419 34.4186 239.144 33.0079 233.992C31.5972 228.84 30.1252 223.719 28.5919 218.628Z" fill="white" />
    <path d="M79.8294 231.968C78.0508 230.987 76.1494 230.496 74.1254 230.496C72.5921 230.496 71.2428 230.803 70.0774 231.416C68.9121 232.029 67.9001 233.041 67.0414 234.452C66.2441 235.863 65.6308 237.733 65.2014 240.064C64.7721 242.395 64.5574 245.277 64.5574 248.712C64.5574 255.336 65.4161 260.089 67.1334 262.972C68.9121 265.793 71.5801 267.204 75.1374 267.204C75.8121 267.204 76.5481 267.173 77.3454 267.112C78.1427 266.989 78.9708 266.805 79.8294 266.56V231.968ZM79.8294 202.988L87.7414 201.608V271.712C86.0241 272.448 84.0614 273.031 81.8534 273.46C79.6454 273.951 77.4068 274.196 75.1374 274.196C68.5134 274.196 63.6988 272.08 60.6934 267.848C57.7494 263.616 56.2774 257.237 56.2774 248.712C56.2774 244.848 56.5841 241.383 57.1974 238.316C57.8721 235.188 58.8841 232.551 60.2334 230.404C61.6441 228.196 63.4227 226.509 65.5694 225.344C67.7161 224.117 70.2614 223.504 73.2054 223.504C74.6161 223.504 75.8121 223.657 76.7934 223.964C77.8361 224.209 78.8481 224.577 79.8294 225.068V202.988Z" fill="white" />
    <path d="M132.987 248.896C132.987 252.699 132.649 256.164 131.975 259.292C131.3 262.359 130.257 264.996 128.847 267.204C127.497 269.412 125.749 271.129 123.603 272.356C121.517 273.583 119.033 274.196 116.151 274.196C113.268 274.196 110.753 273.583 108.607 272.356C106.46 271.129 104.681 269.412 103.271 267.204C101.921 264.996 100.909 262.359 100.235 259.292C99.5601 256.164 99.2227 252.699 99.2227 248.896C99.2227 245.155 99.5601 241.72 100.235 238.592C100.909 235.464 101.921 232.796 103.271 230.588C104.681 228.319 106.46 226.571 108.607 225.344C110.753 224.117 113.268 223.504 116.151 223.504C119.033 223.504 121.517 224.117 123.603 225.344C125.749 226.571 127.497 228.319 128.847 230.588C130.257 232.796 131.3 235.464 131.975 238.592C132.649 241.72 132.987 245.155 132.987 248.896ZM124.707 248.896C124.707 246.197 124.553 243.744 124.247 241.536C123.94 239.267 123.449 237.335 122.775 235.74C122.1 234.084 121.211 232.827 120.107 231.968C119.003 231.048 117.684 230.588 116.151 230.588C114.556 230.588 113.207 231.048 112.103 231.968C111.06 232.827 110.171 234.084 109.435 235.74C108.76 237.335 108.269 239.267 107.963 241.536C107.656 243.744 107.503 246.197 107.503 248.896C107.503 251.595 107.656 254.079 107.963 256.348C108.269 258.556 108.76 260.457 109.435 262.052C110.171 263.647 111.06 264.904 112.103 265.824C113.207 266.683 114.556 267.112 116.151 267.112C117.684 267.112 119.003 266.683 120.107 265.824C121.211 264.904 122.1 263.647 122.775 262.052C123.449 260.457 123.94 258.556 124.247 256.348C124.553 254.079 124.707 251.595 124.707 248.896Z" fill="white" />
    <path d="M152.389 266.56C153.247 266.805 154.075 266.989 154.873 267.112C155.67 267.173 156.406 267.204 157.081 267.204C160.638 267.204 163.275 265.793 164.993 262.972C166.771 260.089 167.661 255.336 167.661 248.712C167.661 245.277 167.446 242.395 167.017 240.064C166.587 237.733 165.943 235.863 165.085 234.452C164.287 233.041 163.306 232.029 162.141 231.416C160.975 230.803 159.626 230.496 158.093 230.496C156.069 230.496 154.167 230.987 152.389 231.968V266.56ZM152.389 225.068C153.37 224.577 154.351 224.209 155.333 223.964C156.375 223.657 157.602 223.504 159.013 223.504C162.018 223.504 164.594 224.117 166.741 225.344C168.887 226.509 170.635 228.196 171.985 230.404C173.334 232.551 174.315 235.188 174.929 238.316C175.603 241.383 175.941 244.848 175.941 248.712C175.941 257.237 174.407 263.616 171.341 267.848C168.335 272.08 163.582 274.196 157.081 274.196C154.811 274.196 152.573 273.951 150.365 273.46C148.157 273.031 146.194 272.448 144.477 271.712V202.988L152.389 201.608V225.068Z" fill="white" />
    <path d="M192.942 251.196C193.003 253.527 193.218 255.673 193.586 257.636C193.954 259.537 194.537 261.224 195.334 262.696C196.193 264.107 197.297 265.211 198.646 266.008C200.057 266.805 201.835 267.204 203.982 267.204C205.761 267.204 207.386 266.959 208.858 266.468C210.391 265.916 211.495 265.456 212.17 265.088L213.642 271.436C212.845 271.988 211.495 272.571 209.594 273.184C207.754 273.859 205.546 274.196 202.97 274.196C199.597 274.196 196.745 273.583 194.414 272.356C192.145 271.129 190.274 269.412 188.802 267.204C187.391 264.996 186.379 262.359 185.766 259.292C185.153 256.225 184.846 252.852 184.846 249.172C184.846 240.279 186.318 233.777 189.262 229.668C192.206 225.559 196.101 223.504 200.946 223.504C206.405 223.504 210.269 225.559 212.538 229.668C214.807 233.777 215.942 239.543 215.942 246.964C215.942 247.639 215.942 248.344 215.942 249.08C215.942 249.755 215.911 250.46 215.85 251.196H192.942ZM200.946 230.22C198.309 230.22 196.377 231.539 195.15 234.176C193.985 236.813 193.279 240.34 193.034 244.756H207.662C207.662 240.279 207.202 236.752 206.282 234.176C205.362 231.539 203.583 230.22 200.946 230.22Z" fill="white" />
</svg>