<svg width="800" height="250" viewBox="0 0 800 250" fill="none" xmlns="http://www.w3.org/2000/svg">
<rect width="800" height="250" fill="#282C34"/>
<path d="M367.744 196.857C367.234 196.857 366.807 196.758 366.461 196.559C366.121 196.354 365.849 196.087 365.644 195.759C365.433 195.437 365.28 195.073 365.187 194.669C365.099 194.259 365.055 193.846 365.055 193.43V193.061C365.055 192.65 365.099 192.243 365.187 191.839C365.28 191.435 365.433 191.068 365.644 190.74C365.854 190.418 366.13 190.157 366.47 189.958C366.815 189.753 367.24 189.65 367.744 189.65C368.072 189.65 368.377 189.706 368.658 189.817C368.945 189.929 369.191 190.081 369.396 190.274C369.602 190.468 369.763 190.693 369.88 190.951C370.003 191.203 370.067 191.473 370.073 191.76H371.611C371.611 191.279 371.515 190.828 371.321 190.406C371.128 189.984 370.861 189.618 370.521 189.308C370.176 189.003 369.766 188.763 369.291 188.587C368.822 188.405 368.307 188.314 367.744 188.314C367.023 188.314 366.394 188.443 365.854 188.701C365.315 188.959 364.867 189.305 364.51 189.738C364.146 190.178 363.874 190.685 363.692 191.259C363.511 191.833 363.42 192.434 363.42 193.061V193.43C363.42 194.062 363.511 194.666 363.692 195.24C363.874 195.809 364.146 196.31 364.51 196.743C364.867 197.183 365.315 197.531 365.854 197.789C366.394 198.047 367.023 198.176 367.744 198.176C368.248 198.176 368.731 198.091 369.194 197.921C369.657 197.745 370.067 197.511 370.425 197.218C370.782 196.931 371.066 196.597 371.277 196.216C371.494 195.829 371.605 195.425 371.611 195.003H370.073C370.067 195.267 369.997 195.513 369.862 195.741C369.733 195.964 369.561 196.157 369.344 196.321C369.127 196.491 368.878 196.623 368.597 196.717C368.321 196.811 368.037 196.857 367.744 196.857ZM374.046 193.157V193.351C374.046 194.036 374.146 194.672 374.345 195.258C374.544 195.844 374.831 196.354 375.206 196.787C375.575 197.221 376.026 197.561 376.56 197.807C377.099 198.053 377.705 198.176 378.379 198.176C379.047 198.176 379.647 198.053 380.181 197.807C380.714 197.561 381.168 197.221 381.543 196.787C381.912 196.354 382.196 195.844 382.396 195.258C382.595 194.672 382.694 194.036 382.694 193.351V193.157C382.694 192.472 382.595 191.836 382.396 191.25C382.196 190.658 381.912 190.146 381.543 189.712C381.168 189.278 380.711 188.938 380.172 188.692C379.639 188.44 379.035 188.314 378.361 188.314C377.693 188.314 377.093 188.44 376.56 188.692C376.026 188.938 375.575 189.278 375.206 189.712C374.831 190.146 374.544 190.658 374.345 191.25C374.146 191.836 374.046 192.472 374.046 193.157ZM375.672 193.351V193.157C375.672 192.694 375.728 192.252 375.839 191.83C375.95 191.402 376.12 191.027 376.349 190.705C376.571 190.383 376.85 190.128 377.184 189.94C377.518 189.747 377.91 189.65 378.361 189.65C378.812 189.65 379.205 189.747 379.539 189.94C379.879 190.128 380.163 190.383 380.392 190.705C380.614 191.027 380.781 191.402 380.893 191.83C381.01 192.252 381.068 192.694 381.068 193.157V193.351C381.068 193.819 381.013 194.268 380.901 194.695C380.79 195.117 380.623 195.489 380.4 195.812C380.172 196.134 379.888 196.389 379.548 196.576C379.214 196.764 378.824 196.857 378.379 196.857C377.928 196.857 377.532 196.764 377.192 196.576C376.853 196.389 376.571 196.134 376.349 195.812C376.12 195.489 375.95 195.117 375.839 194.695C375.728 194.268 375.672 193.819 375.672 193.351ZM385.313 198H386.939V191.18C387.051 190.975 387.18 190.787 387.326 190.617C387.479 190.447 387.643 190.298 387.818 190.169C388.035 190.022 388.272 189.908 388.53 189.826C388.788 189.738 389.066 189.694 389.365 189.694C389.711 189.694 390.016 189.735 390.279 189.817C390.549 189.899 390.777 190.031 390.965 190.213C391.146 190.395 391.284 190.632 391.378 190.925C391.472 191.218 391.519 191.575 391.519 191.997V198H393.145V191.962C393.145 191.329 393.065 190.784 392.907 190.327C392.755 189.864 392.535 189.483 392.248 189.185C391.961 188.886 391.612 188.666 391.202 188.525C390.798 188.385 390.347 188.314 389.849 188.314C389.479 188.32 389.128 188.376 388.794 188.481C388.466 188.581 388.161 188.725 387.88 188.912C387.692 189.035 387.514 189.182 387.344 189.352C387.18 189.516 387.027 189.697 386.887 189.896L386.772 188.49H385.313V198ZM399.974 186.188H398.339V188.49H395.843V189.747H398.339V194.915C398.339 195.501 398.415 196.002 398.567 196.418C398.726 196.828 398.939 197.162 399.209 197.42C399.479 197.684 399.795 197.877 400.158 198C400.527 198.117 400.923 198.176 401.345 198.176C401.597 198.176 401.849 198.164 402.101 198.141C402.358 198.117 402.602 198.082 402.83 198.035C403.059 197.994 403.27 197.944 403.463 197.886C403.656 197.821 403.82 197.748 403.955 197.666L403.727 196.515C403.627 196.538 403.498 196.567 403.34 196.603C403.188 196.632 403.023 196.661 402.848 196.69C402.666 196.72 402.481 196.746 402.294 196.77C402.106 196.787 401.925 196.796 401.749 196.796C401.509 196.796 401.28 196.767 401.063 196.708C400.853 196.649 400.665 196.547 400.501 196.4C400.337 196.26 400.208 196.069 400.114 195.829C400.021 195.589 399.974 195.284 399.974 194.915V189.747H403.595V188.49H399.974V186.188ZM411.136 198.176C412.062 198.176 412.838 197.991 413.465 197.622C414.098 197.247 414.572 196.819 414.889 196.339L413.896 195.565C413.597 195.952 413.222 196.263 412.771 196.497C412.319 196.731 411.804 196.849 411.224 196.849C410.784 196.849 410.383 196.767 410.02 196.603C409.656 196.438 409.346 196.213 409.088 195.926C408.836 195.656 408.637 195.346 408.49 194.994C408.35 194.643 408.259 194.235 408.218 193.772V193.711H415.012V192.981C415.012 192.319 414.927 191.704 414.757 191.136C414.593 190.567 414.341 190.072 414.001 189.65C413.661 189.234 413.233 188.909 412.718 188.675C412.208 188.435 411.61 188.314 410.925 188.314C410.38 188.314 409.847 188.426 409.325 188.648C408.81 188.871 408.35 189.19 407.945 189.606C407.535 190.028 407.207 190.544 406.961 191.153C406.715 191.757 406.592 192.442 406.592 193.21V193.579C406.592 194.241 406.703 194.854 406.926 195.416C407.148 195.979 407.459 196.465 407.857 196.875C408.256 197.285 408.733 197.604 409.29 197.833C409.853 198.062 410.468 198.176 411.136 198.176ZM410.925 189.65C411.341 189.65 411.698 189.727 411.997 189.879C412.302 190.031 412.554 190.23 412.753 190.477C412.952 190.723 413.107 191.016 413.219 191.355C413.33 191.689 413.386 192.003 413.386 192.296V192.375H408.271C408.335 191.936 408.446 191.549 408.604 191.215C408.769 190.875 408.968 190.588 409.202 190.354C409.437 190.125 409.7 189.952 409.993 189.835C410.286 189.712 410.597 189.65 410.925 189.65ZM417.745 198H419.371V191.18C419.482 190.975 419.611 190.787 419.758 190.617C419.91 190.447 420.074 190.298 420.25 190.169C420.467 190.022 420.704 189.908 420.962 189.826C421.22 189.738 421.498 189.694 421.797 189.694C422.143 189.694 422.447 189.735 422.711 189.817C422.98 189.899 423.209 190.031 423.396 190.213C423.578 190.395 423.716 190.632 423.81 190.925C423.903 191.218 423.95 191.575 423.95 191.997V198H425.576V191.962C425.576 191.329 425.497 190.784 425.339 190.327C425.187 189.864 424.967 189.483 424.68 189.185C424.393 188.886 424.044 188.666 423.634 188.525C423.229 188.385 422.778 188.314 422.28 188.314C421.911 188.32 421.56 188.376 421.226 188.481C420.897 188.581 420.593 188.725 420.312 188.912C420.124 189.035 419.945 189.182 419.775 189.352C419.611 189.516 419.459 189.697 419.318 189.896L419.204 188.49H417.745V198ZM432.405 186.188H430.771V188.49H428.274V189.747H430.771V194.915C430.771 195.501 430.847 196.002 430.999 196.418C431.157 196.828 431.371 197.162 431.641 197.42C431.91 197.684 432.227 197.877 432.59 198C432.959 198.117 433.354 198.176 433.776 198.176C434.028 198.176 434.28 198.164 434.532 198.141C434.79 198.117 435.033 198.082 435.262 198.035C435.49 197.994 435.701 197.944 435.895 197.886C436.088 197.821 436.252 197.748 436.387 197.666L436.158 196.515C436.059 196.538 435.93 196.567 435.771 196.603C435.619 196.632 435.455 196.661 435.279 196.69C435.098 196.72 434.913 196.746 434.726 196.77C434.538 196.787 434.356 196.796 434.181 196.796C433.94 196.796 433.712 196.767 433.495 196.708C433.284 196.649 433.097 196.547 432.933 196.4C432.769 196.26 432.64 196.069 432.546 195.829C432.452 195.589 432.405 195.284 432.405 194.915V189.747H436.026V188.49H432.405V186.188Z" fill="#ABB2BF"/>
<path d="M106.83 214.157V214.351C106.83 215.036 106.93 215.672 107.129 216.258C107.328 216.844 107.615 217.354 107.99 217.787C108.359 218.221 108.811 218.561 109.344 218.807C109.883 219.053 110.489 219.176 111.163 219.176C111.831 219.176 112.432 219.053 112.965 218.807C113.498 218.561 113.952 218.221 114.327 217.787C114.696 217.354 114.98 216.844 115.18 216.258C115.379 215.672 115.479 215.036 115.479 214.351V214.157C115.479 213.472 115.379 212.836 115.18 212.25C114.98 211.658 114.696 211.146 114.327 210.712C113.952 210.278 113.495 209.938 112.956 209.692C112.423 209.44 111.819 209.314 111.146 209.314C110.478 209.314 109.877 209.44 109.344 209.692C108.811 209.938 108.359 210.278 107.99 210.712C107.615 211.146 107.328 211.658 107.129 212.25C106.93 212.836 106.83 213.472 106.83 214.157ZM108.456 214.351V214.157C108.456 213.694 108.512 213.252 108.623 212.83C108.734 212.402 108.904 212.027 109.133 211.705C109.355 211.383 109.634 211.128 109.968 210.94C110.302 210.747 110.694 210.65 111.146 210.65C111.597 210.65 111.989 210.747 112.323 210.94C112.663 211.128 112.947 211.383 113.176 211.705C113.398 212.027 113.565 212.402 113.677 212.83C113.794 213.252 113.853 213.694 113.853 214.157V214.351C113.853 214.819 113.797 215.268 113.686 215.695C113.574 216.117 113.407 216.489 113.185 216.812C112.956 217.134 112.672 217.389 112.332 217.576C111.998 217.764 111.608 217.857 111.163 217.857C110.712 217.857 110.316 217.764 109.977 217.576C109.637 217.389 109.355 217.134 109.133 216.812C108.904 216.489 108.734 216.117 108.623 215.695C108.512 215.268 108.456 214.819 108.456 214.351ZM118.089 222.656H119.715V218.086C119.832 218.215 119.958 218.335 120.093 218.446C120.228 218.552 120.371 218.648 120.523 218.736C120.775 218.877 121.057 218.985 121.367 219.062C121.684 219.138 122.023 219.176 122.387 219.176C122.984 219.176 123.515 219.053 123.978 218.807C124.446 218.561 124.839 218.221 125.155 217.787C125.472 217.354 125.712 216.844 125.876 216.258C126.04 215.666 126.122 215.03 126.122 214.351V214.166C126.122 213.457 126.04 212.807 125.876 212.215C125.712 211.617 125.472 211.104 125.155 210.677C124.839 210.249 124.446 209.915 123.978 209.675C123.509 209.435 122.97 209.314 122.36 209.314C122.015 209.314 121.689 209.353 121.385 209.429C121.086 209.499 120.813 209.604 120.567 209.745C120.392 209.839 120.228 209.953 120.075 210.088C119.923 210.217 119.782 210.363 119.653 210.527L119.574 209.49H118.089V222.656ZM124.496 214.166V214.351C124.496 214.813 124.443 215.256 124.338 215.678C124.238 216.1 124.083 216.472 123.872 216.794C123.661 217.116 123.392 217.374 123.063 217.567C122.735 217.755 122.346 217.849 121.895 217.849C121.613 217.849 121.355 217.813 121.121 217.743C120.893 217.673 120.685 217.576 120.497 217.453C120.333 217.348 120.187 217.219 120.058 217.066C119.929 216.914 119.814 216.75 119.715 216.574V211.995C119.826 211.796 119.955 211.614 120.102 211.45C120.248 211.286 120.415 211.148 120.603 211.037C120.772 210.926 120.963 210.841 121.174 210.782C121.391 210.724 121.625 210.694 121.877 210.694C122.334 210.694 122.727 210.788 123.055 210.976C123.383 211.163 123.655 211.415 123.872 211.731C124.083 212.054 124.238 212.426 124.338 212.848C124.443 213.264 124.496 213.703 124.496 214.166ZM133.109 219.176C134.035 219.176 134.812 218.991 135.438 218.622C136.071 218.247 136.546 217.819 136.862 217.339L135.869 216.565C135.57 216.952 135.195 217.263 134.744 217.497C134.293 217.731 133.777 217.849 133.197 217.849C132.758 217.849 132.356 217.767 131.993 217.603C131.63 217.438 131.319 217.213 131.062 216.926C130.81 216.656 130.61 216.346 130.464 215.994C130.323 215.643 130.232 215.235 130.191 214.772V214.711H136.985V213.981C136.985 213.319 136.9 212.704 136.73 212.136C136.566 211.567 136.314 211.072 135.975 210.65C135.635 210.234 135.207 209.909 134.691 209.675C134.182 209.435 133.584 209.314 132.898 209.314C132.354 209.314 131.82 209.426 131.299 209.648C130.783 209.871 130.323 210.19 129.919 210.606C129.509 211.028 129.181 211.544 128.935 212.153C128.688 212.757 128.565 213.442 128.565 214.21V214.579C128.565 215.241 128.677 215.854 128.899 216.416C129.122 216.979 129.433 217.465 129.831 217.875C130.229 218.285 130.707 218.604 131.264 218.833C131.826 219.062 132.441 219.176 133.109 219.176ZM132.898 210.65C133.314 210.65 133.672 210.727 133.971 210.879C134.275 211.031 134.527 211.23 134.727 211.477C134.926 211.723 135.081 212.016 135.192 212.355C135.304 212.689 135.359 213.003 135.359 213.296V213.375H130.244C130.309 212.936 130.42 212.549 130.578 212.215C130.742 211.875 130.941 211.588 131.176 211.354C131.41 211.125 131.674 210.952 131.967 210.835C132.26 210.712 132.57 210.65 132.898 210.65ZM139.719 219H141.345V212.18C141.456 211.975 141.585 211.787 141.731 211.617C141.884 211.447 142.048 211.298 142.224 211.169C142.44 211.022 142.678 210.908 142.936 210.826C143.193 210.738 143.472 210.694 143.771 210.694C144.116 210.694 144.421 210.735 144.685 210.817C144.954 210.899 145.183 211.031 145.37 211.213C145.552 211.395 145.689 211.632 145.783 211.925C145.877 212.218 145.924 212.575 145.924 212.997V219H147.55V212.962C147.55 212.329 147.471 211.784 147.312 211.327C147.16 210.864 146.94 210.483 146.653 210.185C146.366 209.886 146.018 209.666 145.607 209.525C145.203 209.385 144.752 209.314 144.254 209.314C143.885 209.32 143.533 209.376 143.199 209.481C142.871 209.581 142.566 209.725 142.285 209.912C142.098 210.035 141.919 210.182 141.749 210.352C141.585 210.516 141.433 210.697 141.292 210.896L141.178 209.49H139.719V219ZM165.189 207.188H163.555V209.49H161.059V210.747H163.555V215.915C163.555 216.501 163.631 217.002 163.783 217.418C163.941 217.828 164.155 218.162 164.425 218.42C164.694 218.684 165.011 218.877 165.374 219C165.743 219.117 166.139 219.176 166.561 219.176C166.812 219.176 167.064 219.164 167.316 219.141C167.574 219.117 167.817 219.082 168.046 219.035C168.274 218.994 168.485 218.944 168.679 218.886C168.872 218.821 169.036 218.748 169.171 218.666L168.942 217.515C168.843 217.538 168.714 217.567 168.556 217.603C168.403 217.632 168.239 217.661 168.063 217.69C167.882 217.72 167.697 217.746 167.51 217.77C167.322 217.787 167.141 217.796 166.965 217.796C166.725 217.796 166.496 217.767 166.279 217.708C166.068 217.649 165.881 217.547 165.717 217.4C165.553 217.26 165.424 217.069 165.33 216.829C165.236 216.589 165.189 216.284 165.189 215.915V210.747H168.811V209.49H165.189V207.188ZM178.399 219H180.096V218.859C179.99 218.596 179.908 218.288 179.85 217.937C179.791 217.579 179.762 217.242 179.762 216.926V212.505C179.762 211.972 179.665 211.506 179.472 211.107C179.278 210.709 179.015 210.375 178.681 210.105C178.341 209.842 177.939 209.646 177.477 209.517C177.014 209.382 176.513 209.314 175.974 209.314C175.382 209.314 174.852 209.396 174.383 209.561C173.92 209.725 173.527 209.938 173.205 210.202C172.877 210.472 172.625 210.773 172.449 211.107C172.279 211.441 172.191 211.781 172.186 212.127H173.82C173.82 211.928 173.867 211.737 173.961 211.556C174.061 211.368 174.198 211.207 174.374 211.072C174.55 210.938 174.764 210.829 175.016 210.747C175.273 210.665 175.563 210.624 175.886 210.624C176.231 210.624 176.542 210.668 176.817 210.756C177.099 210.844 177.336 210.967 177.529 211.125C177.723 211.289 177.872 211.485 177.978 211.714C178.083 211.942 178.136 212.2 178.136 212.487V213.234H176.36C175.698 213.234 175.098 213.299 174.559 213.428C174.025 213.557 173.568 213.75 173.188 214.008C172.807 214.271 172.511 214.6 172.3 214.992C172.095 215.385 171.992 215.842 171.992 216.363C171.992 216.762 172.068 217.134 172.221 217.479C172.379 217.819 172.602 218.112 172.889 218.358C173.17 218.61 173.513 218.81 173.917 218.956C174.327 219.103 174.784 219.176 175.288 219.176C175.599 219.176 175.892 219.144 176.167 219.079C176.442 219.015 176.703 218.927 176.949 218.815C177.189 218.704 177.409 218.575 177.608 218.429C177.813 218.282 177.998 218.127 178.162 217.963C178.18 218.162 178.206 218.355 178.241 218.543C178.282 218.725 178.335 218.877 178.399 219ZM175.525 217.761C175.209 217.761 174.931 217.72 174.69 217.638C174.45 217.556 174.251 217.441 174.093 217.295C173.935 217.154 173.814 216.984 173.732 216.785C173.656 216.586 173.618 216.369 173.618 216.135C173.618 215.889 173.662 215.669 173.75 215.476C173.844 215.282 173.979 215.115 174.154 214.975C174.4 214.775 174.731 214.629 175.147 214.535C175.569 214.436 176.062 214.386 176.624 214.386H178.136V216.311C178.042 216.498 177.913 216.68 177.749 216.855C177.585 217.025 177.392 217.178 177.169 217.312C176.94 217.447 176.688 217.556 176.413 217.638C176.138 217.72 175.842 217.761 175.525 217.761ZM182.662 214.166V214.351C182.662 215.03 182.75 215.666 182.926 216.258C183.102 216.844 183.354 217.354 183.682 217.787C184.004 218.221 184.399 218.561 184.868 218.807C185.337 219.053 185.861 219.176 186.441 219.176C186.787 219.176 187.109 219.138 187.408 219.062C187.707 218.991 187.979 218.889 188.226 218.754C188.384 218.666 188.53 218.563 188.665 218.446C188.806 218.329 188.938 218.2 189.061 218.06V218.877C189.061 219.287 189.002 219.65 188.885 219.967C188.768 220.283 188.601 220.547 188.384 220.758C188.161 220.975 187.895 221.139 187.584 221.25C187.273 221.361 186.925 221.417 186.538 221.417C186.321 221.417 186.104 221.394 185.888 221.347C185.671 221.306 185.454 221.235 185.237 221.136C185.021 221.036 184.807 220.901 184.596 220.731C184.385 220.567 184.18 220.365 183.98 220.125L183.137 221.101C183.354 221.411 183.611 221.672 183.91 221.883C184.215 222.094 184.531 222.261 184.859 222.384C185.182 222.513 185.501 222.604 185.817 222.656C186.134 222.715 186.415 222.744 186.661 222.744C187.259 222.744 187.804 222.656 188.296 222.48C188.788 222.305 189.213 222.047 189.57 221.707C189.922 221.367 190.194 220.954 190.388 220.468C190.587 219.981 190.687 219.425 190.687 218.798V209.49H189.21L189.131 210.527C189.02 210.387 188.899 210.258 188.771 210.141C188.647 210.023 188.516 209.921 188.375 209.833C188.117 209.663 187.827 209.534 187.505 209.446C187.188 209.358 186.84 209.314 186.459 209.314C185.867 209.314 185.337 209.435 184.868 209.675C184.399 209.915 184.001 210.249 183.673 210.677C183.345 211.104 183.093 211.617 182.917 212.215C182.747 212.807 182.662 213.457 182.662 214.166ZM184.288 214.351V214.166C184.288 213.703 184.335 213.264 184.429 212.848C184.528 212.426 184.684 212.054 184.895 211.731C185.1 211.415 185.363 211.163 185.686 210.976C186.014 210.788 186.406 210.694 186.863 210.694C187.133 210.694 187.379 210.729 187.602 210.8C187.824 210.864 188.026 210.955 188.208 211.072C188.39 211.195 188.551 211.339 188.691 211.503C188.832 211.667 188.955 211.849 189.061 212.048V216.407C188.955 216.612 188.832 216.8 188.691 216.97C188.551 217.14 188.393 217.286 188.217 217.409C188.035 217.532 187.83 217.629 187.602 217.699C187.379 217.764 187.127 217.796 186.846 217.796C186.395 217.796 186.008 217.705 185.686 217.523C185.363 217.336 185.1 217.084 184.895 216.768C184.684 216.451 184.528 216.085 184.429 215.669C184.335 215.253 184.288 214.813 184.288 214.351Z" fill="#ABB2BF"/>
<path d="M597.934 217.857C597.424 217.857 596.996 217.758 596.65 217.559C596.311 217.354 596.038 217.087 595.833 216.759C595.622 216.437 595.47 216.073 595.376 215.669C595.288 215.259 595.244 214.846 595.244 214.43V214.061C595.244 213.65 595.288 213.243 595.376 212.839C595.47 212.435 595.622 212.068 595.833 211.74C596.044 211.418 596.319 211.157 596.659 210.958C597.005 210.753 597.43 210.65 597.934 210.65C598.262 210.65 598.566 210.706 598.848 210.817C599.135 210.929 599.381 211.081 599.586 211.274C599.791 211.468 599.952 211.693 600.069 211.951C600.192 212.203 600.257 212.473 600.263 212.76H601.801C601.801 212.279 601.704 211.828 601.511 211.406C601.317 210.984 601.051 210.618 600.711 210.308C600.365 210.003 599.955 209.763 599.48 209.587C599.012 209.405 598.496 209.314 597.934 209.314C597.213 209.314 596.583 209.443 596.044 209.701C595.505 209.959 595.057 210.305 594.699 210.738C594.336 211.178 594.063 211.685 593.882 212.259C593.7 212.833 593.609 213.434 593.609 214.061V214.43C593.609 215.062 593.7 215.666 593.882 216.24C594.063 216.809 594.336 217.31 594.699 217.743C595.057 218.183 595.505 218.531 596.044 218.789C596.583 219.047 597.213 219.176 597.934 219.176C598.438 219.176 598.921 219.091 599.384 218.921C599.847 218.745 600.257 218.511 600.614 218.218C600.972 217.931 601.256 217.597 601.467 217.216C601.684 216.829 601.795 216.425 601.801 216.003H600.263C600.257 216.267 600.187 216.513 600.052 216.741C599.923 216.964 599.75 217.157 599.533 217.321C599.316 217.491 599.067 217.623 598.786 217.717C598.511 217.811 598.227 217.857 597.934 217.857ZM604.947 205.5V206.915H608.182V217.594H604.947V219H612.91V217.594H609.808V205.5H604.947ZM615.046 214.157V214.351C615.046 215.036 615.146 215.672 615.345 216.258C615.544 216.844 615.831 217.354 616.206 217.787C616.575 218.221 617.026 218.561 617.56 218.807C618.099 219.053 618.705 219.176 619.379 219.176C620.047 219.176 620.647 219.053 621.181 218.807C621.714 218.561 622.168 218.221 622.543 217.787C622.912 217.354 623.196 216.844 623.396 216.258C623.595 215.672 623.694 215.036 623.694 214.351V214.157C623.694 213.472 623.595 212.836 623.396 212.25C623.196 211.658 622.912 211.146 622.543 210.712C622.168 210.278 621.711 209.938 621.172 209.692C620.639 209.44 620.035 209.314 619.361 209.314C618.693 209.314 618.093 209.44 617.56 209.692C617.026 209.938 616.575 210.278 616.206 210.712C615.831 211.146 615.544 211.658 615.345 212.25C615.146 212.836 615.046 213.472 615.046 214.157ZM616.672 214.351V214.157C616.672 213.694 616.728 213.252 616.839 212.83C616.95 212.402 617.12 212.027 617.349 211.705C617.571 211.383 617.85 211.128 618.184 210.94C618.518 210.747 618.91 210.65 619.361 210.65C619.812 210.65 620.205 210.747 620.539 210.94C620.879 211.128 621.163 211.383 621.392 211.705C621.614 212.027 621.781 212.402 621.893 212.83C622.01 213.252 622.068 213.694 622.068 214.157V214.351C622.068 214.819 622.013 215.268 621.901 215.695C621.79 216.117 621.623 216.489 621.4 216.812C621.172 217.134 620.888 217.389 620.548 217.576C620.214 217.764 619.824 217.857 619.379 217.857C618.928 217.857 618.532 217.764 618.192 217.576C617.853 217.389 617.571 217.134 617.349 216.812C617.12 216.489 616.95 216.117 616.839 215.695C616.728 215.268 616.672 214.819 616.672 214.351ZM632.633 216.478C632.633 216.63 632.604 216.773 632.545 216.908C632.486 217.043 632.401 217.166 632.29 217.277C632.108 217.459 631.856 217.603 631.534 217.708C631.212 217.808 630.834 217.857 630.4 217.857C630.125 217.857 629.847 217.828 629.565 217.77C629.284 217.711 629.029 217.611 628.801 217.471C628.566 217.33 628.37 217.146 628.212 216.917C628.06 216.688 627.972 216.407 627.948 216.073H626.322C626.322 216.478 626.413 216.867 626.595 217.242C626.782 217.617 627.052 217.945 627.403 218.227C627.749 218.514 628.174 218.745 628.678 218.921C629.182 219.091 629.756 219.176 630.4 219.176C630.963 219.176 631.481 219.108 631.956 218.974C632.431 218.839 632.838 218.648 633.178 218.402C633.518 218.156 633.781 217.86 633.969 217.515C634.162 217.169 634.259 216.785 634.259 216.363C634.259 215.971 634.174 215.625 634.004 215.326C633.84 215.027 633.6 214.764 633.283 214.535C632.967 214.312 632.577 214.122 632.114 213.964C631.651 213.8 631.127 213.656 630.541 213.533C630.096 213.445 629.727 213.354 629.434 213.261C629.146 213.167 628.918 213.062 628.748 212.944C628.572 212.827 628.449 212.695 628.379 212.549C628.309 212.402 628.273 212.235 628.273 212.048C628.273 211.866 628.317 211.69 628.405 211.521C628.493 211.351 628.625 211.201 628.801 211.072C628.971 210.943 629.185 210.841 629.442 210.765C629.706 210.688 630.011 210.65 630.356 210.65C630.69 210.65 630.989 210.697 631.253 210.791C631.522 210.885 631.751 211.008 631.938 211.16C632.126 211.312 632.272 211.488 632.378 211.688C632.483 211.881 632.536 212.08 632.536 212.285H634.162C634.162 211.869 634.071 211.482 633.89 211.125C633.714 210.762 633.462 210.445 633.134 210.176C632.806 209.906 632.407 209.695 631.938 209.543C631.47 209.391 630.942 209.314 630.356 209.314C629.812 209.314 629.311 209.388 628.854 209.534C628.402 209.681 628.013 209.88 627.685 210.132C627.356 210.384 627.102 210.68 626.92 211.02C626.738 211.354 626.647 211.714 626.647 212.101C626.647 212.493 626.735 212.839 626.911 213.138C627.087 213.431 627.336 213.686 627.658 213.902C627.975 214.125 628.355 214.315 628.801 214.474C629.252 214.632 629.75 214.767 630.295 214.878C630.74 214.966 631.112 215.065 631.411 215.177C631.71 215.282 631.95 215.399 632.132 215.528C632.313 215.657 632.442 215.801 632.519 215.959C632.595 216.111 632.633 216.284 632.633 216.478ZM641.325 219.176C642.251 219.176 643.027 218.991 643.654 218.622C644.287 218.247 644.762 217.819 645.078 217.339L644.085 216.565C643.786 216.952 643.411 217.263 642.96 217.497C642.509 217.731 641.993 217.849 641.413 217.849C640.974 217.849 640.572 217.767 640.209 217.603C639.846 217.438 639.535 217.213 639.277 216.926C639.025 216.656 638.826 216.346 638.68 215.994C638.539 215.643 638.448 215.235 638.407 214.772V214.711H645.201V213.981C645.201 213.319 645.116 212.704 644.946 212.136C644.782 211.567 644.53 211.072 644.19 210.65C643.851 210.234 643.423 209.909 642.907 209.675C642.397 209.435 641.8 209.314 641.114 209.314C640.569 209.314 640.036 209.426 639.515 209.648C638.999 209.871 638.539 210.19 638.135 210.606C637.725 211.028 637.396 211.544 637.15 212.153C636.904 212.757 636.781 213.442 636.781 214.21V214.579C636.781 215.241 636.893 215.854 637.115 216.416C637.338 216.979 637.648 217.465 638.047 217.875C638.445 218.285 638.923 218.604 639.479 218.833C640.042 219.062 640.657 219.176 641.325 219.176ZM641.114 210.65C641.53 210.65 641.888 210.727 642.187 210.879C642.491 211.031 642.743 211.23 642.942 211.477C643.142 211.723 643.297 212.016 643.408 212.355C643.52 212.689 643.575 213.003 643.575 213.296V213.375H638.46C638.524 212.936 638.636 212.549 638.794 212.215C638.958 211.875 639.157 211.588 639.392 211.354C639.626 211.125 639.89 210.952 640.183 210.835C640.476 210.712 640.786 210.65 641.114 210.65ZM662.595 207.188H660.96V209.49H658.464V210.747H660.96V215.915C660.96 216.501 661.036 217.002 661.188 217.418C661.347 217.828 661.561 218.162 661.83 218.42C662.1 218.684 662.416 218.877 662.779 219C663.148 219.117 663.544 219.176 663.966 219.176C664.218 219.176 664.47 219.164 664.722 219.141C664.979 219.117 665.223 219.082 665.451 219.035C665.68 218.994 665.891 218.944 666.084 218.886C666.277 218.821 666.441 218.748 666.576 218.666L666.348 217.515C666.248 217.538 666.119 217.567 665.961 217.603C665.809 217.632 665.645 217.661 665.469 217.69C665.287 217.72 665.103 217.746 664.915 217.77C664.728 217.787 664.546 217.796 664.37 217.796C664.13 217.796 663.901 217.767 663.685 217.708C663.474 217.649 663.286 217.547 663.122 217.4C662.958 217.26 662.829 217.069 662.735 216.829C662.642 216.589 662.595 216.284 662.595 215.915V210.747H666.216V209.49H662.595V207.188ZM675.805 219H677.501V218.859C677.396 218.596 677.313 218.288 677.255 217.937C677.196 217.579 677.167 217.242 677.167 216.926V212.505C677.167 211.972 677.07 211.506 676.877 211.107C676.684 210.709 676.42 210.375 676.086 210.105C675.746 209.842 675.345 209.646 674.882 209.517C674.419 209.382 673.918 209.314 673.379 209.314C672.787 209.314 672.257 209.396 671.788 209.561C671.325 209.725 670.933 209.938 670.61 210.202C670.282 210.472 670.03 210.773 669.854 211.107C669.685 211.441 669.597 211.781 669.591 212.127H671.226C671.226 211.928 671.272 211.737 671.366 211.556C671.466 211.368 671.604 211.207 671.779 211.072C671.955 210.938 672.169 210.829 672.421 210.747C672.679 210.665 672.969 210.624 673.291 210.624C673.637 210.624 673.947 210.668 674.223 210.756C674.504 210.844 674.741 210.967 674.935 211.125C675.128 211.289 675.277 211.485 675.383 211.714C675.488 211.942 675.541 212.2 675.541 212.487V213.234H673.766C673.104 213.234 672.503 213.299 671.964 213.428C671.431 213.557 670.974 213.75 670.593 214.008C670.212 214.271 669.916 214.6 669.705 214.992C669.5 215.385 669.397 215.842 669.397 216.363C669.397 216.762 669.474 217.134 669.626 217.479C669.784 217.819 670.007 218.112 670.294 218.358C670.575 218.61 670.918 218.81 671.322 218.956C671.732 219.103 672.189 219.176 672.693 219.176C673.004 219.176 673.297 219.144 673.572 219.079C673.848 219.015 674.108 218.927 674.354 218.815C674.595 218.704 674.814 218.575 675.014 218.429C675.219 218.282 675.403 218.127 675.567 217.963C675.585 218.162 675.611 218.355 675.646 218.543C675.688 218.725 675.74 218.877 675.805 219ZM672.931 217.761C672.614 217.761 672.336 217.72 672.096 217.638C671.855 217.556 671.656 217.441 671.498 217.295C671.34 217.154 671.22 216.984 671.138 216.785C671.062 216.586 671.023 216.369 671.023 216.135C671.023 215.889 671.067 215.669 671.155 215.476C671.249 215.282 671.384 215.115 671.56 214.975C671.806 214.775 672.137 214.629 672.553 214.535C672.975 214.436 673.467 214.386 674.029 214.386H675.541V216.311C675.447 216.498 675.318 216.68 675.154 216.855C674.99 217.025 674.797 217.178 674.574 217.312C674.346 217.447 674.094 217.556 673.818 217.638C673.543 217.72 673.247 217.761 672.931 217.761ZM680.067 214.166V214.351C680.067 215.03 680.155 215.666 680.331 216.258C680.507 216.844 680.759 217.354 681.087 217.787C681.409 218.221 681.805 218.561 682.273 218.807C682.742 219.053 683.267 219.176 683.847 219.176C684.192 219.176 684.515 219.138 684.813 219.062C685.112 218.991 685.385 218.889 685.631 218.754C685.789 218.666 685.936 218.563 686.07 218.446C686.211 218.329 686.343 218.2 686.466 218.06V218.877C686.466 219.287 686.407 219.65 686.29 219.967C686.173 220.283 686.006 220.547 685.789 220.758C685.566 220.975 685.3 221.139 684.989 221.25C684.679 221.361 684.33 221.417 683.943 221.417C683.727 221.417 683.51 221.394 683.293 221.347C683.076 221.306 682.859 221.235 682.643 221.136C682.426 221.036 682.212 220.901 682.001 220.731C681.79 220.567 681.585 220.365 681.386 220.125L680.542 221.101C680.759 221.411 681.017 221.672 681.315 221.883C681.62 222.094 681.937 222.261 682.265 222.384C682.587 222.513 682.906 222.604 683.223 222.656C683.539 222.715 683.82 222.744 684.066 222.744C684.664 222.744 685.209 222.656 685.701 222.48C686.193 222.305 686.618 222.047 686.976 221.707C687.327 221.367 687.6 220.954 687.793 220.468C687.992 219.981 688.092 219.425 688.092 218.798V209.49H686.615L686.536 210.527C686.425 210.387 686.305 210.258 686.176 210.141C686.053 210.023 685.921 209.921 685.78 209.833C685.522 209.663 685.232 209.534 684.91 209.446C684.594 209.358 684.245 209.314 683.864 209.314C683.272 209.314 682.742 209.435 682.273 209.675C681.805 209.915 681.406 210.249 681.078 210.677C680.75 211.104 680.498 211.617 680.322 212.215C680.152 212.807 680.067 213.457 680.067 214.166ZM681.693 214.351V214.166C681.693 213.703 681.74 213.264 681.834 212.848C681.934 212.426 682.089 212.054 682.3 211.731C682.505 211.415 682.769 211.163 683.091 210.976C683.419 210.788 683.812 210.694 684.269 210.694C684.538 210.694 684.784 210.729 685.007 210.8C685.229 210.864 685.432 210.955 685.613 211.072C685.795 211.195 685.956 211.339 686.097 211.503C686.237 211.667 686.36 211.849 686.466 212.048V216.407C686.36 216.612 686.237 216.8 686.097 216.97C685.956 217.14 685.798 217.286 685.622 217.409C685.44 217.532 685.235 217.629 685.007 217.699C684.784 217.764 684.532 217.796 684.251 217.796C683.8 217.796 683.413 217.705 683.091 217.523C682.769 217.336 682.505 217.084 682.3 216.768C682.089 216.451 681.934 216.085 681.834 215.669C681.74 215.253 681.693 214.813 681.693 214.351Z" fill="#ABB2BF"/>
<path d="M574 154L574 164L195.5 164L195.5 154" stroke="#ABB2BF" stroke-width="2"/>
<path d="M142 154L142 191.5" stroke="#ABB2BF" stroke-width="2"/>
<path d="M647 154L647 191.5" stroke="#ABB2BF" stroke-width="2"/>
<path d="M130.069 119.311V114.621L115.427 108.975L114.159 108.544L115.427 108.137L130.069 102.395V97.7056L109.78 106.75V110.243L130.069 119.311ZM168.829 119.287L189.956 110.219V106.726L168.829 97.6816V102.251L184.309 107.994L185.745 108.448L184.309 108.855L168.829 114.693V119.287ZM220.006 124V89.1641H215.819V104.142H201.536V89.1641H197.373V124H201.536V107.898H215.819V124H220.006ZM239.027 124.479C241.548 124.479 243.661 123.976 245.368 122.971C247.09 121.95 248.382 120.786 249.244 119.478L246.54 117.373C245.727 118.425 244.706 119.271 243.478 119.909C242.249 120.547 240.846 120.866 239.267 120.866C238.07 120.866 236.978 120.642 235.989 120.196C235 119.749 234.154 119.135 233.453 118.354C232.767 117.62 232.224 116.774 231.826 115.817C231.443 114.86 231.196 113.752 231.084 112.492V112.324H249.579V110.338C249.579 108.536 249.347 106.861 248.885 105.314C248.438 103.767 247.752 102.419 246.827 101.271C245.902 100.138 244.738 99.2528 243.334 98.6147C241.946 97.9608 240.319 97.6338 238.453 97.6338C236.97 97.6338 235.518 97.9368 234.099 98.543C232.695 99.1491 231.443 100.018 230.342 101.151C229.226 102.299 228.333 103.703 227.663 105.362C226.993 107.005 226.658 108.871 226.658 110.96V111.965C226.658 113.768 226.961 115.435 227.567 116.966C228.173 118.497 229.018 119.821 230.103 120.938C231.188 122.054 232.488 122.923 234.003 123.545C235.534 124.167 237.209 124.479 239.027 124.479ZM238.453 101.271C239.586 101.271 240.559 101.478 241.372 101.893C242.201 102.307 242.887 102.85 243.43 103.52C243.972 104.189 244.395 104.987 244.698 105.912C245.001 106.821 245.152 107.675 245.152 108.472V108.688H231.228C231.403 107.491 231.706 106.438 232.137 105.529C232.583 104.604 233.126 103.823 233.764 103.185C234.402 102.562 235.119 102.092 235.917 101.773C236.715 101.438 237.56 101.271 238.453 101.271ZM257.713 87.25V91.1021H266.518V120.172H257.713V124H279.39V120.172H270.944V87.25H257.713ZM287.142 87.25V91.1021H295.947V120.172H287.142V124H308.819V120.172H300.373V87.25H287.142ZM314.633 110.817V111.343C314.633 113.209 314.904 114.94 315.446 116.535C315.989 118.13 316.77 119.518 317.791 120.698C318.796 121.879 320.024 122.804 321.476 123.474C322.943 124.144 324.594 124.479 326.428 124.479C328.247 124.479 329.882 124.144 331.333 123.474C332.785 122.804 334.021 121.879 335.042 120.698C336.046 119.518 336.82 118.13 337.362 116.535C337.905 114.94 338.176 113.209 338.176 111.343V110.817C338.176 108.951 337.905 107.22 337.362 105.625C336.82 104.014 336.046 102.618 335.042 101.438C334.021 100.258 332.777 99.3325 331.309 98.6626C329.858 97.9767 328.215 97.6338 326.38 97.6338C324.562 97.6338 322.927 97.9767 321.476 98.6626C320.024 99.3325 318.796 100.258 317.791 101.438C316.77 102.618 315.989 104.014 315.446 105.625C314.904 107.22 314.633 108.951 314.633 110.817ZM319.059 111.343V110.817C319.059 109.557 319.211 108.353 319.514 107.204C319.817 106.04 320.279 105.019 320.901 104.142C321.507 103.264 322.265 102.57 323.174 102.06C324.083 101.534 325.152 101.271 326.38 101.271C327.609 101.271 328.677 101.534 329.586 102.06C330.512 102.57 331.285 103.264 331.907 104.142C332.513 105.019 332.968 106.04 333.271 107.204C333.59 108.353 333.75 109.557 333.75 110.817V111.343C333.75 112.619 333.598 113.84 333.295 115.004C332.992 116.152 332.537 117.165 331.931 118.042C331.309 118.92 330.535 119.614 329.61 120.124C328.701 120.634 327.64 120.89 326.428 120.89C325.2 120.89 324.123 120.634 323.198 120.124C322.273 119.614 321.507 118.92 320.901 118.042C320.279 117.165 319.817 116.152 319.514 115.004C319.211 113.84 319.059 112.619 319.059 111.343ZM356.527 122.971V118.76H351.718V123.043C351.718 124.399 351.558 125.707 351.239 126.967C350.92 128.227 350.378 129.415 349.612 130.532L352.364 132.039C353.64 130.907 354.653 129.511 355.402 127.852C356.152 126.193 356.527 124.566 356.527 122.971ZM405.981 124H410.527L414.786 99.2368L415.049 97.7534L415.289 99.2129L419.523 124H424.045L428.28 89.1641H424.093L421.581 113.138L421.438 114.573L421.174 113.162L416.939 89.1641H413.087L408.876 113.138L408.613 114.573L408.47 113.186L405.958 89.1641H401.747L405.981 124ZM432.348 110.817V111.343C432.348 113.209 432.619 114.94 433.161 116.535C433.703 118.13 434.485 119.518 435.506 120.698C436.511 121.879 437.739 122.804 439.19 123.474C440.658 124.144 442.309 124.479 444.143 124.479C445.961 124.479 447.596 124.144 449.048 123.474C450.499 122.804 451.736 121.879 452.756 120.698C453.761 119.518 454.535 118.13 455.077 116.535C455.619 114.94 455.891 113.209 455.891 111.343V110.817C455.891 108.951 455.619 107.22 455.077 105.625C454.535 104.014 453.761 102.618 452.756 101.438C451.736 100.258 450.491 99.3325 449.024 98.6626C447.572 97.9767 445.93 97.6338 444.095 97.6338C442.277 97.6338 440.642 97.9767 439.19 98.6626C437.739 99.3325 436.511 100.258 435.506 101.438C434.485 102.618 433.703 104.014 433.161 105.625C432.619 107.22 432.348 108.951 432.348 110.817ZM436.774 111.343V110.817C436.774 109.557 436.925 108.353 437.229 107.204C437.532 106.04 437.994 105.019 438.616 104.142C439.222 103.264 439.98 102.57 440.889 102.06C441.798 101.534 442.867 101.271 444.095 101.271C445.323 101.271 446.392 101.534 447.301 102.06C448.226 102.57 449 103.264 449.622 104.142C450.228 105.019 450.683 106.04 450.986 107.204C451.305 108.353 451.464 109.557 451.464 110.817V111.343C451.464 112.619 451.313 113.84 451.01 115.004C450.707 116.152 450.252 117.165 449.646 118.042C449.024 118.92 448.25 119.614 447.325 120.124C446.416 120.634 445.355 120.89 444.143 120.89C442.915 120.89 441.838 120.634 440.913 120.124C439.988 119.614 439.222 118.92 438.616 118.042C437.994 117.165 437.532 116.152 437.229 115.004C436.925 113.84 436.774 112.619 436.774 111.343ZM479.984 97.6338C478.102 97.6338 476.419 98.0485 474.936 98.8779C473.468 99.6914 472.208 100.808 471.155 102.228L471.131 101.582L470.94 98.1123H466.729V124H471.179V107.396C471.466 106.598 471.825 105.88 472.256 105.242C472.702 104.588 473.221 104.038 473.811 103.591C474.465 103.081 475.231 102.698 476.108 102.443C476.985 102.172 477.966 102.036 479.051 102.036C479.896 102.036 480.702 102.084 481.467 102.18C482.249 102.259 483.07 102.395 483.932 102.586L484.53 98.2559C484.083 98.0645 483.413 97.9129 482.52 97.8013C481.643 97.6896 480.797 97.6338 479.984 97.6338ZM493.143 87.25V91.1021H501.948V120.172H493.143V124H514.82V120.172H506.374V87.25H493.143ZM521.041 110.841V111.343C521.041 113.194 521.288 114.924 521.782 116.535C522.277 118.13 522.971 119.518 523.864 120.698C524.757 121.879 525.834 122.804 527.094 123.474C528.37 124.144 529.789 124.479 531.353 124.479C532.948 124.479 534.343 124.207 535.54 123.665C536.736 123.123 537.765 122.325 538.626 121.272L538.817 124H542.885V87.25H538.458V100.672C537.613 99.6834 536.608 98.9338 535.444 98.4233C534.295 97.897 532.948 97.6338 531.4 97.6338C529.821 97.6338 528.394 97.9608 527.118 98.6147C525.842 99.2687 524.757 100.178 523.864 101.342C522.955 102.507 522.253 103.902 521.758 105.529C521.28 107.14 521.041 108.911 521.041 110.841ZM525.467 111.343V110.841C525.467 109.581 525.602 108.384 525.874 107.252C526.145 106.104 526.567 105.091 527.142 104.213C527.7 103.352 528.418 102.666 529.295 102.156C530.188 101.645 531.257 101.39 532.501 101.39C533.952 101.39 535.165 101.733 536.138 102.419C537.111 103.089 537.884 103.95 538.458 105.003V117.014C537.884 118.146 537.111 119.047 536.138 119.717C535.165 120.387 533.937 120.722 532.453 120.722C531.225 120.722 530.172 120.475 529.295 119.98C528.418 119.47 527.7 118.784 527.142 117.923C526.567 117.062 526.145 116.065 525.874 114.932C525.602 113.8 525.467 112.603 525.467 111.343ZM563.652 112.731V89.1641H559.202V112.731H563.652ZM558.771 121.679C558.771 122.413 558.995 123.027 559.441 123.521C559.904 124.016 560.59 124.263 561.499 124.263C562.408 124.263 563.094 124.016 563.557 123.521C564.035 123.027 564.274 122.413 564.274 121.679C564.274 120.914 564.035 120.276 563.557 119.765C563.094 119.255 562.408 119 561.499 119C560.59 119 559.904 119.255 559.441 119.765C558.995 120.276 558.771 120.914 558.771 121.679ZM600.929 119.311V114.621L586.286 108.975L585.018 108.544L586.286 108.137L600.929 102.395V97.7056L580.64 106.75V110.243L600.929 119.311ZM616.002 126.991L630.525 89.1641H626.577L612.03 126.991H616.002ZM669.117 119.287L690.244 110.219V106.726L669.117 97.6816V102.251L684.597 107.994L686.033 108.448L684.597 108.855L669.117 114.693V119.287Z" fill="white"/>
<path d="M139.281 133.953H143.707V121.512C144.026 121.863 144.369 122.19 144.736 122.493C145.103 122.78 145.493 123.043 145.908 123.282C146.594 123.665 147.36 123.96 148.205 124.167C149.066 124.375 149.992 124.479 150.98 124.479C152.607 124.479 154.051 124.144 155.311 123.474C156.587 122.804 157.656 121.879 158.517 120.698C159.378 119.518 160.032 118.13 160.479 116.535C160.926 114.924 161.149 113.194 161.149 111.343V110.841C161.149 108.911 160.926 107.14 160.479 105.529C160.032 103.902 159.378 102.507 158.517 101.342C157.656 100.178 156.587 99.2687 155.311 98.6147C154.035 97.9608 152.568 97.6338 150.909 97.6338C149.968 97.6338 149.082 97.7375 148.253 97.9448C147.439 98.1362 146.698 98.4233 146.028 98.8062C145.549 99.0614 145.103 99.3724 144.688 99.7393C144.273 100.09 143.89 100.489 143.54 100.936L143.324 98.1123H139.281V133.953ZM156.723 110.841V111.343C156.723 112.603 156.579 113.808 156.292 114.956C156.021 116.104 155.598 117.117 155.024 117.995C154.45 118.872 153.716 119.574 152.823 120.1C151.93 120.611 150.869 120.866 149.641 120.866C148.875 120.866 148.173 120.77 147.535 120.579C146.913 120.387 146.347 120.124 145.836 119.789C145.39 119.502 144.991 119.151 144.64 118.736C144.289 118.322 143.978 117.875 143.707 117.396V104.931C144.01 104.389 144.361 103.894 144.76 103.448C145.159 103.001 145.613 102.626 146.124 102.323C146.586 102.02 147.104 101.789 147.679 101.629C148.269 101.47 148.907 101.39 149.593 101.39C150.837 101.39 151.906 101.645 152.799 102.156C153.692 102.666 154.434 103.352 155.024 104.213C155.598 105.091 156.021 106.104 156.292 107.252C156.579 108.384 156.723 109.581 156.723 110.841ZM639.569 133.953H643.995V121.512C644.314 121.863 644.657 122.19 645.024 122.493C645.391 122.78 645.782 123.043 646.196 123.282C646.882 123.665 647.648 123.96 648.493 124.167C649.354 124.375 650.28 124.479 651.269 124.479C652.896 124.479 654.339 124.144 655.599 123.474C656.875 122.804 657.944 121.879 658.805 120.698C659.667 119.518 660.32 118.13 660.767 116.535C661.214 114.924 661.437 113.194 661.437 111.343V110.841C661.437 108.911 661.214 107.14 660.767 105.529C660.32 103.902 659.667 102.507 658.805 101.342C657.944 100.178 656.875 99.2687 655.599 98.6147C654.323 97.9608 652.856 97.6338 651.197 97.6338C650.256 97.6338 649.37 97.7375 648.541 97.9448C647.728 98.1362 646.986 98.4233 646.316 98.8062C645.837 99.0614 645.391 99.3724 644.976 99.7393C644.561 100.09 644.179 100.489 643.828 100.936L643.612 98.1123H639.569V133.953ZM657.011 110.841V111.343C657.011 112.603 656.867 113.808 656.58 114.956C656.309 116.104 655.886 117.117 655.312 117.995C654.738 118.872 654.004 119.574 653.111 120.1C652.218 120.611 651.157 120.866 649.929 120.866C649.163 120.866 648.461 120.77 647.823 120.579C647.201 120.387 646.635 120.124 646.125 119.789C645.678 119.502 645.279 119.151 644.928 118.736C644.577 118.322 644.266 117.875 643.995 117.396V104.931C644.298 104.389 644.649 103.894 645.048 103.448C645.447 103.001 645.901 102.626 646.412 102.323C646.874 102.02 647.393 101.789 647.967 101.629C648.557 101.47 649.195 101.39 649.881 101.39C651.125 101.39 652.194 101.645 653.087 102.156C653.98 102.666 654.722 103.352 655.312 104.213C655.886 105.091 656.309 106.104 656.58 107.252C656.867 108.384 657.011 109.581 657.011 110.841Z" fill="#E06C75"/>
<path d="M367.894 43.1758C368.819 43.1758 369.596 42.9912 370.223 42.6221C370.855 42.2471 371.33 41.8193 371.646 41.3389L370.653 40.5654C370.354 40.9521 369.979 41.2627 369.528 41.4971C369.077 41.7314 368.562 41.8486 367.981 41.8486C367.542 41.8486 367.141 41.7666 366.777 41.6025C366.414 41.4385 366.104 41.2129 365.846 40.9258C365.594 40.6562 365.395 40.3457 365.248 39.9941C365.107 39.6426 365.017 39.2354 364.976 38.7725V38.7109H371.77V37.9814C371.77 37.3193 371.685 36.7041 371.515 36.1357C371.351 35.5674 371.099 35.0723 370.759 34.6504C370.419 34.2344 369.991 33.9092 369.476 33.6748C368.966 33.4346 368.368 33.3145 367.683 33.3145C367.138 33.3145 366.604 33.4258 366.083 33.6484C365.567 33.8711 365.107 34.1904 364.703 34.6064C364.293 35.0283 363.965 35.5439 363.719 36.1533C363.473 36.7568 363.35 37.4424 363.35 38.21V38.5791C363.35 39.2412 363.461 39.8535 363.684 40.416C363.906 40.9785 364.217 41.4648 364.615 41.875C365.014 42.2852 365.491 42.6045 366.048 42.833C366.61 43.0615 367.226 43.1758 367.894 43.1758ZM367.683 34.6504C368.099 34.6504 368.456 34.7266 368.755 34.8789C369.06 35.0312 369.312 35.2305 369.511 35.4766C369.71 35.7227 369.865 36.0156 369.977 36.3555C370.088 36.6895 370.144 37.0029 370.144 37.2959V37.375H365.028C365.093 36.9355 365.204 36.5488 365.362 36.2148C365.526 35.875 365.726 35.5879 365.96 35.3535C366.194 35.125 366.458 34.9521 366.751 34.835C367.044 34.7119 367.354 34.6504 367.683 34.6504ZM374.758 29.5V30.915H377.992V41.5938H374.758V43H382.721V41.5938H379.618V29.5H374.758ZM389.515 43.1758C390.44 43.1758 391.217 42.9912 391.844 42.6221C392.477 42.2471 392.951 41.8193 393.268 41.3389L392.274 40.5654C391.976 40.9521 391.601 41.2627 391.149 41.4971C390.698 41.7314 390.183 41.8486 389.603 41.8486C389.163 41.8486 388.762 41.7666 388.398 41.6025C388.035 41.4385 387.725 41.2129 387.467 40.9258C387.215 40.6562 387.016 40.3457 386.869 39.9941C386.729 39.6426 386.638 39.2354 386.597 38.7725V38.7109H393.391V37.9814C393.391 37.3193 393.306 36.7041 393.136 36.1357C392.972 35.5674 392.72 35.0723 392.38 34.6504C392.04 34.2344 391.612 33.9092 391.097 33.6748C390.587 33.4346 389.989 33.3145 389.304 33.3145C388.759 33.3145 388.226 33.4258 387.704 33.6484C387.188 33.8711 386.729 34.1904 386.324 34.6064C385.914 35.0283 385.586 35.5439 385.34 36.1533C385.094 36.7568 384.971 37.4424 384.971 38.21V38.5791C384.971 39.2412 385.082 39.8535 385.305 40.416C385.527 40.9785 385.838 41.4648 386.236 41.875C386.635 42.2852 387.112 42.6045 387.669 42.833C388.231 43.0615 388.847 43.1758 389.515 43.1758ZM389.304 34.6504C389.72 34.6504 390.077 34.7266 390.376 34.8789C390.681 35.0312 390.933 35.2305 391.132 35.4766C391.331 35.7227 391.486 36.0156 391.598 36.3555C391.709 36.6895 391.765 37.0029 391.765 37.2959V37.375H386.649C386.714 36.9355 386.825 36.5488 386.983 36.2148C387.147 35.875 387.347 35.5879 387.581 35.3535C387.815 35.125 388.079 34.9521 388.372 34.835C388.665 34.7119 388.976 34.6504 389.304 34.6504ZM396.871 33.4902H395.412V43H396.959V35.4326C396.994 35.3389 397.038 35.251 397.091 35.1689C397.149 35.0869 397.217 35.0137 397.293 34.9492C397.393 34.8672 397.513 34.8057 397.653 34.7646C397.8 34.7178 397.97 34.6943 398.163 34.6943C398.339 34.6943 398.491 34.7178 398.62 34.7646C398.755 34.8057 398.866 34.873 398.954 34.9668C399.048 35.0664 399.115 35.1924 399.156 35.3447C399.203 35.4971 399.227 35.6729 399.227 35.8721V43H400.773V35.8809C400.773 35.8457 400.773 35.8164 400.773 35.793C400.773 35.7637 400.773 35.7344 400.773 35.7051C400.791 35.5586 400.826 35.4268 400.879 35.3096C400.932 35.1865 401.005 35.0781 401.099 34.9844C401.192 34.8965 401.31 34.8262 401.45 34.7734C401.591 34.7207 401.758 34.6943 401.951 34.6943C402.133 34.6943 402.291 34.7178 402.426 34.7646C402.566 34.8115 402.684 34.8818 402.777 34.9756C402.865 35.0752 402.933 35.2012 402.979 35.3535C403.026 35.5059 403.05 35.6816 403.05 35.8809V43H404.597V35.8984C404.597 35.4414 404.544 35.0459 404.438 34.7119C404.333 34.3721 404.181 34.0967 403.981 33.8857C403.8 33.6982 403.577 33.5576 403.313 33.4639C403.05 33.3643 402.754 33.3145 402.426 33.3145C402.186 33.3203 401.963 33.3525 401.758 33.4111C401.559 33.4697 401.377 33.5488 401.213 33.6484C401.084 33.7363 400.964 33.8389 400.853 33.9561C400.741 34.0732 400.645 34.1992 400.562 34.334C400.498 34.1875 400.419 34.0557 400.325 33.9385C400.237 33.8213 400.138 33.7217 400.026 33.6396C399.874 33.5342 399.695 33.4551 399.49 33.4023C399.291 33.3438 399.065 33.3145 398.813 33.3145C398.368 33.3203 397.987 33.417 397.671 33.6045C397.36 33.792 397.108 34.0527 396.915 34.3867L396.871 33.4902ZM411.136 43.1758C412.062 43.1758 412.838 42.9912 413.465 42.6221C414.098 42.2471 414.572 41.8193 414.889 41.3389L413.896 40.5654C413.597 40.9521 413.222 41.2627 412.771 41.4971C412.319 41.7314 411.804 41.8486 411.224 41.8486C410.784 41.8486 410.383 41.7666 410.02 41.6025C409.656 41.4385 409.346 41.2129 409.088 40.9258C408.836 40.6562 408.637 40.3457 408.49 39.9941C408.35 39.6426 408.259 39.2354 408.218 38.7725V38.7109H415.012V37.9814C415.012 37.3193 414.927 36.7041 414.757 36.1357C414.593 35.5674 414.341 35.0723 414.001 34.6504C413.661 34.2344 413.233 33.9092 412.718 33.6748C412.208 33.4346 411.61 33.3145 410.925 33.3145C410.38 33.3145 409.847 33.4258 409.325 33.6484C408.81 33.8711 408.35 34.1904 407.945 34.6064C407.535 35.0283 407.207 35.5439 406.961 36.1533C406.715 36.7568 406.592 37.4424 406.592 38.21V38.5791C406.592 39.2412 406.703 39.8535 406.926 40.416C407.148 40.9785 407.459 41.4648 407.857 41.875C408.256 42.2852 408.733 42.6045 409.29 42.833C409.853 43.0615 410.468 43.1758 411.136 43.1758ZM410.925 34.6504C411.341 34.6504 411.698 34.7266 411.997 34.8789C412.302 35.0312 412.554 35.2305 412.753 35.4766C412.952 35.7227 413.107 36.0156 413.219 36.3555C413.33 36.6895 413.386 37.0029 413.386 37.2959V37.375H408.271C408.335 36.9355 408.446 36.5488 408.604 36.2148C408.769 35.875 408.968 35.5879 409.202 35.3535C409.437 35.125 409.7 34.9521 409.993 34.835C410.286 34.7119 410.597 34.6504 410.925 34.6504ZM417.745 43H419.371V36.1797C419.482 35.9746 419.611 35.7871 419.758 35.6172C419.91 35.4473 420.074 35.2979 420.25 35.1689C420.467 35.0225 420.704 34.9082 420.962 34.8262C421.22 34.7383 421.498 34.6943 421.797 34.6943C422.143 34.6943 422.447 34.7354 422.711 34.8174C422.98 34.8994 423.209 35.0312 423.396 35.2129C423.578 35.3945 423.716 35.6318 423.81 35.9248C423.903 36.2178 423.95 36.5752 423.95 36.9971V43H425.576V36.9619C425.576 36.3291 425.497 35.7842 425.339 35.3271C425.187 34.8643 424.967 34.4834 424.68 34.1846C424.393 33.8857 424.044 33.666 423.634 33.5254C423.229 33.3848 422.778 33.3145 422.28 33.3145C421.911 33.3203 421.56 33.376 421.226 33.4814C420.897 33.5811 420.593 33.7246 420.312 33.9121C420.124 34.0352 419.945 34.1816 419.775 34.3516C419.611 34.5156 419.459 34.6973 419.318 34.8965L419.204 33.4902H417.745V43ZM432.405 31.1875H430.771V33.4902H428.274V34.7471H430.771V39.915C430.771 40.501 430.847 41.002 430.999 41.418C431.157 41.8281 431.371 42.1621 431.641 42.4199C431.91 42.6836 432.227 42.877 432.59 43C432.959 43.1172 433.354 43.1758 433.776 43.1758C434.028 43.1758 434.28 43.1641 434.532 43.1406C434.79 43.1172 435.033 43.082 435.262 43.0352C435.49 42.9941 435.701 42.9443 435.895 42.8857C436.088 42.8213 436.252 42.748 436.387 42.666L436.158 41.5146C436.059 41.5381 435.93 41.5674 435.771 41.6025C435.619 41.6318 435.455 41.6611 435.279 41.6904C435.098 41.7197 434.913 41.7461 434.726 41.7695C434.538 41.7871 434.356 41.7959 434.181 41.7959C433.94 41.7959 433.712 41.7666 433.495 41.708C433.284 41.6494 433.097 41.5469 432.933 41.4004C432.769 41.2598 432.64 41.0693 432.546 40.8291C432.452 40.5889 432.405 40.2842 432.405 39.915V34.7471H436.026V33.4902H432.405V31.1875Z" fill="#ABB2BF"/>
<path d="M110.5 69V59H690V69" stroke="#ABB2BF" stroke-width="2"/>
</svg>
