<svg width="226" height="284" viewBox="0 0 226 284" fill="none"
    xmlns="http://www.w3.org/2000/svg">
    <path d="M23.4415 252.952C22.6015 249.928 21.7405 247.03 20.8585 244.258C19.9765 241.486 19.1155 238.882 18.2755 236.446C17.4775 233.968 16.7005 231.721 15.9445 229.705C15.1885 227.689 14.4955 225.925 13.8655 224.413C13.6975 226.807 13.5505 229.453 13.4245 232.351C13.3405 235.207 13.2355 238.147 13.1095 241.171C13.0255 244.195 12.9415 247.24 12.8575 250.306C12.8155 253.33 12.7735 256.228 12.7315 259H7.31348C7.43948 255.22 7.56548 251.419 7.69148 247.597C7.81748 243.733 7.96448 239.953 8.13248 236.257C8.34248 232.519 8.55248 228.886 8.76248 225.358C9.01448 221.83 9.28748 218.491 9.58148 215.341H15.1885C15.9445 217.147 16.8055 219.31 17.7715 221.83C18.7375 224.308 19.7035 226.912 20.6695 229.642C21.6775 232.372 22.6435 235.102 23.5675 237.832C24.4915 240.562 25.2895 243.061 25.9615 245.329C26.6335 243.061 27.4105 240.562 28.2925 237.832C29.1745 235.102 30.0985 232.372 31.0645 229.642C32.0305 226.912 32.9755 224.308 33.8995 221.83C34.8655 219.31 35.7265 217.147 36.4825 215.341H42.0895C42.3835 218.491 42.6355 221.83 42.8455 225.358C43.0975 228.886 43.3075 232.519 43.4755 236.257C43.6855 239.953 43.8535 243.733 43.9795 247.597C44.1055 251.419 44.2315 255.22 44.3575 259H38.9395C38.8555 256.228 38.7715 253.309 38.6875 250.243C38.6455 247.177 38.5615 244.111 38.4355 241.045C38.3515 237.937 38.2465 234.934 38.1205 232.036C37.9945 229.096 37.8475 226.408 37.6795 223.972C37.3015 225.022 36.8185 226.345 36.2305 227.941C35.6845 229.495 35.0965 231.196 34.4665 233.044C33.8785 234.892 33.2485 236.803 32.5765 238.777C31.9465 240.709 31.3375 242.578 30.7495 244.384C30.2035 246.19 29.6995 247.849 29.2375 249.361C28.8175 250.831 28.4815 252.028 28.2295 252.952H23.4415Z" fill="white" />
    <path d="M72.9334 242.494C72.9334 245.098 72.7024 247.471 72.2404 249.613C71.7784 251.713 71.0644 253.519 70.0984 255.031C69.1744 256.543 67.9774 257.719 66.5074 258.559C65.0794 259.399 63.3784 259.819 61.4044 259.819C59.4304 259.819 57.7084 259.399 56.2384 258.559C54.7684 257.719 53.5504 256.543 52.5844 255.031C51.6604 253.519 50.9674 251.713 50.5054 249.613C50.0434 247.471 49.8124 245.098 49.8124 242.494C49.8124 239.932 50.0434 237.58 50.5054 235.438C50.9674 233.296 51.6604 231.469 52.5844 229.957C53.5504 228.403 54.7684 227.206 56.2384 226.366C57.7084 225.526 59.4304 225.106 61.4044 225.106C63.3784 225.106 65.0794 225.526 66.5074 226.366C67.9774 227.206 69.1744 228.403 70.0984 229.957C71.0644 231.469 71.7784 233.296 72.2404 235.438C72.7024 237.58 72.9334 239.932 72.9334 242.494ZM67.2634 242.494C67.2634 240.646 67.1584 238.966 66.9484 237.454C66.7384 235.9 66.4024 234.577 65.9404 233.485C65.4784 232.351 64.8694 231.49 64.1134 230.902C63.3574 230.272 62.4544 229.957 61.4044 229.957C60.3124 229.957 59.3884 230.272 58.6324 230.902C57.9184 231.49 57.3094 232.351 56.8054 233.485C56.3434 234.577 56.0074 235.9 55.7974 237.454C55.5874 238.966 55.4824 240.646 55.4824 242.494C55.4824 244.342 55.5874 246.043 55.7974 247.597C56.0074 249.109 56.3434 250.411 56.8054 251.503C57.3094 252.595 57.9184 253.456 58.6324 254.086C59.3884 254.674 60.3124 254.968 61.4044 254.968C62.4544 254.968 63.3574 254.674 64.1134 254.086C64.8694 253.456 65.4784 252.595 65.9404 251.503C66.4024 250.411 66.7384 249.109 66.9484 247.597C67.1584 246.043 67.2634 244.342 67.2634 242.494Z" fill="white" />
    <path d="M78.9745 226.87C80.5285 226.408 82.2085 226.03 84.0145 225.736C85.8205 225.4 87.4795 225.232 88.9915 225.232C90.6295 225.232 92.1205 225.463 93.4645 225.925C94.8085 226.345 95.9425 227.08 96.8665 228.13C97.8325 229.18 98.5675 230.608 99.0715 232.414C99.6175 234.178 99.8905 236.383 99.8905 239.029V259H94.4725V239.47C94.4725 236.194 94.0525 233.8 93.2125 232.288C92.3725 230.776 90.7975 230.02 88.4875 230.02C87.2695 230.02 85.9045 230.23 84.3925 230.65V259H78.9745V226.87Z" fill="white" />
    <path d="M128.708 242.494C128.708 245.098 128.477 247.471 128.015 249.613C127.553 251.713 126.839 253.519 125.873 255.031C124.949 256.543 123.752 257.719 122.282 258.559C120.854 259.399 119.153 259.819 117.179 259.819C115.205 259.819 113.483 259.399 112.013 258.559C110.543 257.719 109.325 256.543 108.359 255.031C107.435 253.519 106.742 251.713 106.28 249.613C105.818 247.471 105.587 245.098 105.587 242.494C105.587 239.932 105.818 237.58 106.28 235.438C106.742 233.296 107.435 231.469 108.359 229.957C109.325 228.403 110.543 227.206 112.013 226.366C113.483 225.526 115.205 225.106 117.179 225.106C119.153 225.106 120.854 225.526 122.282 226.366C123.752 227.206 124.949 228.403 125.873 229.957C126.839 231.469 127.553 233.296 128.015 235.438C128.477 237.58 128.708 239.932 128.708 242.494ZM123.038 242.494C123.038 240.646 122.933 238.966 122.723 237.454C122.513 235.9 122.177 234.577 121.715 233.485C121.253 232.351 120.644 231.49 119.888 230.902C119.132 230.272 118.229 229.957 117.179 229.957C116.087 229.957 115.163 230.272 114.407 230.902C113.693 231.49 113.084 232.351 112.58 233.485C112.118 234.577 111.782 235.9 111.572 237.454C111.362 238.966 111.257 240.646 111.257 242.494C111.257 244.342 111.362 246.043 111.572 247.597C111.782 249.109 112.118 250.411 112.58 251.503C113.084 252.595 113.693 253.456 114.407 254.086C115.163 254.674 116.087 254.968 117.179 254.968C118.229 254.968 119.132 254.674 119.888 254.086C120.644 253.456 121.253 252.595 121.715 251.503C122.177 250.411 122.513 249.109 122.723 247.597C122.933 246.043 123.038 244.342 123.038 242.494Z" fill="white" />
    <path d="M140.104 254.023C141.322 254.695 142.624 255.031 144.01 255.031C145.06 255.031 145.984 254.821 146.782 254.401C147.58 253.981 148.252 253.288 148.798 252.322C149.386 251.356 149.827 250.075 150.121 248.479C150.415 246.883 150.562 244.909 150.562 242.557C150.562 238.021 149.974 234.787 148.798 232.855C147.664 230.881 145.837 229.894 143.317 229.894C142.855 229.894 142.351 229.936 141.805 230.02C141.259 230.062 140.692 230.167 140.104 230.335V254.023ZM140.104 270.655H134.686V226.807C135.862 226.303 137.185 225.904 138.655 225.61C140.167 225.274 141.7 225.106 143.254 225.106C145.564 225.106 147.538 225.505 149.176 226.303C150.856 227.101 152.2 228.256 153.208 229.768C154.258 231.238 155.014 233.065 155.476 235.249C155.98 237.391 156.232 239.848 156.232 242.62C156.232 248.206 155.329 252.469 153.523 255.409C151.759 258.349 148.861 259.819 144.829 259.819C143.863 259.819 143.002 259.714 142.246 259.504C141.49 259.336 140.776 259.084 140.104 258.748V270.655Z" fill="white" />
    <path d="M183.498 242.494C183.498 245.098 183.267 247.471 182.805 249.613C182.343 251.713 181.629 253.519 180.663 255.031C179.739 256.543 178.542 257.719 177.072 258.559C175.644 259.399 173.943 259.819 171.969 259.819C169.995 259.819 168.273 259.399 166.803 258.559C165.333 257.719 164.115 256.543 163.149 255.031C162.225 253.519 161.532 251.713 161.07 249.613C160.608 247.471 160.377 245.098 160.377 242.494C160.377 239.932 160.608 237.58 161.07 235.438C161.532 233.296 162.225 231.469 163.149 229.957C164.115 228.403 165.333 227.206 166.803 226.366C168.273 225.526 169.995 225.106 171.969 225.106C173.943 225.106 175.644 225.526 177.072 226.366C178.542 227.206 179.739 228.403 180.663 229.957C181.629 231.469 182.343 233.296 182.805 235.438C183.267 237.58 183.498 239.932 183.498 242.494ZM177.828 242.494C177.828 240.646 177.723 238.966 177.513 237.454C177.303 235.9 176.967 234.577 176.505 233.485C176.043 232.351 175.434 231.49 174.678 230.902C173.922 230.272 173.019 229.957 171.969 229.957C170.877 229.957 169.953 230.272 169.197 230.902C168.483 231.49 167.874 232.351 167.37 233.485C166.908 234.577 166.572 235.9 166.362 237.454C166.152 238.966 166.047 240.646 166.047 242.494C166.047 244.342 166.152 246.043 166.362 247.597C166.572 249.109 166.908 250.411 167.37 251.503C167.874 252.595 168.483 253.456 169.197 254.086C169.953 254.674 170.877 254.968 171.969 254.968C173.019 254.968 173.922 254.674 174.678 254.086C175.434 253.456 176.043 252.595 176.505 251.503C176.967 250.411 177.303 249.109 177.513 247.597C177.723 246.043 177.828 244.342 177.828 242.494Z" fill="white" />
    <path d="M198.107 259.63C194.999 259.546 192.774 258.79 191.43 257.362C190.086 255.892 189.413 253.582 189.413 250.432V211.057L194.831 210.112V250.558C194.831 252.028 195.126 253.099 195.714 253.771C196.302 254.401 197.331 254.842 198.801 255.094L198.107 259.63Z" fill="white" />
    <path d="M210.592 252.133C211.81 247.933 212.923 243.712 213.931 239.47C214.939 235.228 215.905 230.713 216.829 225.925H222.184C221.554 228.991 220.861 232.015 220.105 234.997C219.391 237.979 218.635 240.856 217.837 243.628C217.081 246.4 216.304 249.025 215.506 251.503C214.75 253.939 214.036 256.165 213.364 258.181C212.566 260.533 211.789 262.507 211.033 264.103C210.319 265.741 209.521 267.043 208.639 268.009C207.799 269.017 206.875 269.731 205.867 270.151C204.859 270.613 203.662 270.844 202.276 270.844C201.52 270.844 200.764 270.739 200.008 270.529C199.252 270.361 198.622 270.172 198.118 269.962L199.126 265.552C200.218 266.014 201.247 266.245 202.213 266.245C203.431 266.245 204.418 265.804 205.174 264.922C205.93 264.04 206.665 262.717 207.379 260.953L208.009 259.378C207.211 257.194 206.392 254.779 205.552 252.133C204.754 249.445 203.956 246.652 203.158 243.754C202.402 240.856 201.667 237.895 200.953 234.871C200.239 231.805 199.588 228.823 199 225.925H204.733C205.069 227.899 205.468 230.062 205.93 232.414C206.392 234.766 206.875 237.118 207.379 239.47C207.925 241.822 208.471 244.111 209.017 246.337C209.563 248.521 210.088 250.453 210.592 252.133Z" fill="white" />
    <path d="M70.0144 93L112.124 161.457L155.022 93L184 180H95.5168L77 147.607H53L70.0144 93Z" fill="white" />
    <path d="M49 0H177L112.277 93L49 0Z" fill="white" />
    <path d="M13.002 0L59 0L13 142L13.002 0Z" fill="white" />
    <path d="M213.998 0L168 0L214 142L213.998 0Z" fill="white" />
</svg>